<svg width="105" height="33" viewBox="0 0 105 33" fill="none" xmlns="http://www.w3.org/2000/svg">
<path d="M19.1524 23.6792H10.5615V32.2701H19.1524V23.6792Z" fill="#ABEBF4"/>
<path d="M26.7579 11.854H10.5615V20.4141H26.7579H29.6831V11.854H26.7579Z" fill="#00B3C8"/>
<path d="M37.1347 0H10.5615V8.59088H37.1347V0Z" fill="#009BB5"/>
<path d="M8.59085 11.854H0V20.4449H8.59085V11.854Z" fill="#00B3C8"/>
<path d="M53.4854 11.6704V15.9813H62.1688V20.2921H53.4854V27.0355H47.9121V7.35962H63.3386V11.6397H53.4854V11.6704Z" fill="white"/>
<path d="M71.3752 11.7628H65.3398V7.35962H82.9527V11.7628H76.9483V27.0047H71.3752V11.7628Z" fill="white"/>
<path d="M97.735 27.0042L93.6702 20.9074L89.6673 27.0042H83.3242L90.4372 17.0893L83.6011 7.38989H89.852L93.7932 13.0556L97.6732 7.38989H103.678L96.8415 16.8737L104.139 27.035H97.735V27.0042Z" fill="white"/>
</svg>
