<svg width="19" height="18" viewBox="0 0 19 18" fill="none" xmlns="http://www.w3.org/2000/svg">
<g clip-path="url(#clip0)">
<path fill-rule="evenodd" clip-rule="evenodd" d="M18.5484 8.99685C18.5484 10.237 18.5583 11.4673 18.4891 12.7125C18.4199 14.1552 18.0889 15.43 17.0365 16.4874C15.984 17.5398 14.7043 17.8709 13.2615 17.94C12.0214 18.0092 10.7911 17.9993 9.54593 17.9993C8.3008 17.9993 7.07543 18.0092 5.83031 17.94C4.38754 17.8709 3.11277 17.5398 2.0554 16.4874C1.00297 15.435 0.671922 14.1552 0.602749 12.7125C0.533575 11.4723 0.543457 10.242 0.543457 8.99685C0.543457 7.75667 0.533575 6.52636 0.602749 5.28124C0.671922 3.83847 1.00297 2.5637 2.0554 1.50633C3.10783 0.453897 4.38754 0.122851 5.83031 0.0536772C7.07543 -0.0105556 8.30574 -0.000673605 9.54593 -0.000673605C10.7861 -0.000673605 12.0164 -0.0105556 13.2615 0.0586182C14.7043 0.127792 15.9791 0.458838 17.0365 1.51127C18.0889 2.5637 18.4199 3.84341 18.4891 5.28618C18.5583 6.52636 18.5484 7.75667 18.5484 8.99685ZM9.54593 1.61503C8.23162 1.61503 5.42021 1.51127 4.23931 1.98066C3.82921 2.14371 3.52781 2.34135 3.20665 2.65757C2.89042 2.97874 2.69278 3.28014 2.52973 3.69024C2.06034 4.87607 2.1641 7.68749 2.1641 8.99685C2.1641 10.3112 2.06034 13.1226 2.52973 14.3035C2.69278 14.7136 2.89536 15.0199 3.21159 15.3361C3.52781 15.6524 3.83415 15.85 4.24425 16.018C5.43009 16.4874 8.24151 16.3836 9.55087 16.3836C10.8602 16.3836 13.6766 16.4874 14.8575 16.018C15.2676 15.8549 15.5739 15.6524 15.8901 15.3361C16.2064 15.0199 16.404 14.7136 16.572 14.3035C17.0414 13.1176 16.9376 10.3062 16.9376 8.99685C16.9376 7.68255 17.0414 4.87113 16.572 3.69024C16.4089 3.28014 16.2064 2.9738 15.8901 2.65757C15.5739 2.34135 15.2676 2.14371 14.8575 1.97572C13.6716 1.51127 10.8602 1.61503 9.54593 1.61503ZM15.4306 4.19422C15.4306 4.79208 14.9514 5.27135 14.3535 5.27135C13.7556 5.27135 13.2764 4.79208 13.2764 4.19422C13.2764 3.59636 13.7556 3.11709 14.3535 3.11709C14.9514 3.11709 15.4306 3.59636 15.4306 4.19422ZM14.1657 8.99685C14.1657 11.5513 12.1054 13.6117 9.55087 13.6117C6.99638 13.6117 4.93599 11.5513 4.93599 8.99685C4.93599 6.44237 6.99638 4.38198 9.55087 4.38198C12.1004 4.38198 14.1657 6.44237 14.1657 8.99685ZM12.55 8.99685C12.55 7.34657 11.2012 5.99768 9.55087 5.99768C7.90058 5.99768 6.55169 7.34657 6.55169 8.99685C6.55169 10.6471 7.90058 11.996 9.55087 11.996C11.2012 11.996 12.55 10.6521 12.55 8.99685Z" fill="white"/>
</g>
<defs>
<clipPath id="clip0">
<rect width="18" height="18" fill="white" transform="translate(0.555176)"/>
</clipPath>
</defs>
</svg>
