<svg width="15" height="12" viewBox="0 0 15 12" fill="none" xmlns="http://www.w3.org/2000/svg">
<path d="M2.50541 2.2848C2.51406 2.19941 2.50247 2.11318 2.47158 2.0331C2.44069 1.95302 2.39137 1.88134 2.32761 1.82388L1.01021 0.236923V0H5.10037L8.26167 6.93334L11.0412 0H14.9402V0.237031L13.814 1.31686C13.7663 1.35318 13.7295 1.4018 13.7074 1.4575C13.6854 1.5132 13.679 1.57385 13.6888 1.63294V9.56706C13.679 9.62615 13.6854 9.6868 13.7074 9.7425C13.7295 9.7982 13.7663 9.84682 13.814 9.88314L14.9138 10.963V11.2H9.38146V10.963L10.5208 9.85675C10.6328 9.74475 10.6328 9.71191 10.6328 9.54079V3.1276L7.46486 11.1736H7.03667L3.34843 3.1276V8.52019C3.33326 8.63208 3.34376 8.74596 3.37914 8.85319C3.41452 8.96042 3.47384 9.05819 3.55261 9.13909L5.03446 10.9366V11.1736H0.83252V10.9367L2.31437 9.13909C2.3925 9.05813 2.45051 8.95993 2.4837 8.85242C2.51688 8.74491 2.52432 8.6311 2.50541 8.52019V2.2848Z" fill="white"/>
</svg>
